<svg xmlns="http://www.w3.org/2000/svg" xmlns:xlink="http://www.w3.org/1999/xlink" contentStyleType="text/css" data-diagram-type="CLASS" height="589px" preserveAspectRatio="none" style="width:1188px;height:589px;" version="1.1" viewBox="0 0 1188 589" width="1188px" zoomAndPan="magnify"><?plantuml 1.2026.3beta6?><defs/><g><!--class Character--><g class="entity" data-qualified-name="Character" data-source-line="14" id="ent0002"><rect fill="#2B2B2B" height="80.5938" rx="2.5" ry="2.5" style="stroke:#555555;stroke-width:0.5;" width="101.1182" x="622.89" y="328.93"/><ellipse cx="637.89" cy="344.93" fill="#2E5233" rx="11" ry="11" style="stroke:#E7E7E7;stroke-width:1;"/><path d="M640.8588,350.5706 Q640.2806,350.8675 639.64,351.0081 Q638.9994,351.1644 638.2963,351.1644 Q635.7963,351.1644 634.4681,349.5237 Q633.1556,347.8675 633.1556,344.7425 Q633.1556,341.6175 634.4681,339.9612 Q635.7963,338.305 638.2963,338.305 Q638.9994,338.305 639.64,338.4612 Q640.2963,338.6175 640.8588,338.9144 L640.8588,341.6331 Q640.2338,341.055 639.64,340.7894 Q639.0463,340.5081 638.4213,340.5081 Q637.0775,340.5081 636.39,341.5862 Q635.7025,342.6487 635.7025,344.7425 Q635.7025,346.8362 636.39,347.9144 Q637.0775,348.9769 638.4213,348.9769 Q639.0463,348.9769 639.64,348.7112 Q640.2338,348.43 640.8588,347.8519 L640.8588,350.5706 Z " fill="#FFFFFF"/><text fill="#D4D4D4" font-family="sans-serif" font-size="14" lengthAdjust="spacing" textLength="69.1182" x="651.89" y="349.7767">Character</text><line style="stroke:#555555;stroke-width:0.5;" x1="623.89" x2="723.0082" y1="360.93" y2="360.93"/><line style="stroke:#555555;stroke-width:0.5;" x1="623.89" x2="723.0082" y1="368.93" y2="368.93"/><g data-visibility-modifier="PUBLIC_METHOD"><ellipse cx="633.89" cy="382.5784" fill="#84BE84" rx="3" ry="3" style="stroke:#038048;stroke-width:1;"/></g><text fill="#D4D4D4" font-family="sans-serif" font-size="14" lengthAdjust="spacing" textLength="48.4668" x="642.89" y="385.9251">Move()</text><g data-visibility-modifier="PUBLIC_METHOD"><ellipse cx="633.89" cy="398.8753" fill="#84BE84" rx="3" ry="3" style="stroke:#038048;stroke-width:1;"/></g><text fill="#D4D4D4" font-family="sans-serif" font-size="14" lengthAdjust="spacing" textLength="46.4502" x="642.89" y="402.222">Jump()</text></g><!--class Entity--><g class="entity" data-qualified-name="Entity" data-source-line="22" id="ent0003"><rect fill="#2B2B2B" height="129.4844" rx="2.5" ry="2.5" style="stroke:#555555;stroke-width:0.5;" width="477.7803" x="580.56" y="131.29"/><ellipse cx="794.7641" cy="147.29" fill="#2E5233" rx="11" ry="11" style="stroke:#E7E7E7;stroke-width:1;"/><path d="M797.7329,152.9306 Q797.1547,153.2275 796.5141,153.3681 Q795.8735,153.5244 795.1704,153.5244 Q792.6704,153.5244 791.3422,151.8837 Q790.0297,150.2275 790.0297,147.1025 Q790.0297,143.9775 791.3422,142.3212 Q792.6704,140.665 795.1704,140.665 Q795.8735,140.665 796.5141,140.8212 Q797.1704,140.9775 797.7329,141.2744 L797.7329,143.9931 Q797.1079,143.415 796.5141,143.1494 Q795.9204,142.8681 795.2954,142.8681 Q793.9516,142.8681 793.2641,143.9462 Q792.5766,145.0087 792.5766,147.1025 Q792.5766,149.1962 793.2641,150.2744 Q793.9516,151.3369 795.2954,151.3369 Q795.9204,151.3369 796.5141,151.0712 Q797.1079,150.79 797.7329,150.2119 L797.7329,152.9306 Z " fill="#FFFFFF"/><text fill="#D4D4D4" font-family="sans-serif" font-size="14" lengthAdjust="spacing" textLength="40.8721" x="815.2641" y="152.1367">Entity</text><line style="stroke:#555555;stroke-width:0.5;" x1="581.56" x2="1057.3403" y1="163.29" y2="163.29"/><g data-visibility-modifier="PRIVATE_FIELD"><rect fill="none" height="6" style="stroke:#C82930;stroke-width:1;" width="6" x="588.56" y="173.9384"/></g><text fill="#D4D4D4" font-family="sans-serif" font-size="14" lengthAdjust="spacing" textLength="285.3662" x="600.56" y="180.2851">HealthComponent : UHealthComponent*</text><g data-visibility-modifier="PRIVATE_FIELD"><rect fill="none" height="6" style="stroke:#C82930;stroke-width:1;" width="6" x="588.56" y="190.2353"/></g><text fill="#D4D4D4" font-family="sans-serif" font-size="14" lengthAdjust="spacing" textLength="451.7803" x="600.56" y="196.582">MovementStateMachine : UMovementStateMachineComponent*</text><line style="stroke:#555555;stroke-width:0.5;" x1="581.56" x2="1057.3403" y1="203.8837" y2="203.8837"/><g data-visibility-modifier="PUBLIC_METHOD"><ellipse cx="591.56" cy="217.5322" fill="#84BE84" rx="3" ry="3" style="stroke:#038048;stroke-width:1;"/></g><text fill="#D4D4D4" font-family="sans-serif" font-size="14" lengthAdjust="spacing" textLength="198.4883" x="600.56" y="220.8789">TakeDamage(amount: float)</text><g data-visibility-modifier="PUBLIC_METHOD"><ellipse cx="591.56" cy="233.8291" fill="#84BE84" rx="3" ry="3" style="stroke:#038048;stroke-width:1;"/></g><text fill="#D4D4D4" font-family="sans-serif" font-size="14" lengthAdjust="spacing" textLength="173.0449" x="600.56" y="237.1757">Move(direction: FVector)</text><g data-visibility-modifier="PUBLIC_METHOD"><ellipse cx="591.56" cy="250.1259" fill="#84BE84" rx="3" ry="3" style="stroke:#038048;stroke-width:1;"/></g><text fill="#D4D4D4" font-family="sans-serif" font-size="14" lengthAdjust="spacing" textLength="422.7002" x="600.56" y="253.4726">UpdateMovementState(state: UMovementMacroStateBase*)</text></g><!--class Player--><g class="entity" data-qualified-name="Player" data-source-line="36" id="ent0005"><rect fill="#2B2B2B" height="64.2969" rx="2.5" ry="2.5" style="stroke:#555555;stroke-width:0.5;" width="75.5654" x="717.66" y="7"/><ellipse cx="732.66" cy="23" fill="#2E5233" rx="11" ry="11" style="stroke:#E7E7E7;stroke-width:1;"/><path d="M735.6288,28.6406 Q735.0506,28.9375 734.41,29.0781 Q733.7694,29.2344 733.0663,29.2344 Q730.5663,29.2344 729.2381,27.5938 Q727.9256,25.9375 727.9256,22.8125 Q727.9256,19.6875 729.2381,18.0313 Q730.5663,16.375 733.0663,16.375 Q733.7694,16.375 734.41,16.5313 Q735.0663,16.6875 735.6288,16.9844 L735.6288,19.7031 Q735.0038,19.125 734.41,18.8594 Q733.8163,18.5781 733.1913,18.5781 Q731.8475,18.5781 731.16,19.6563 Q730.4725,20.7188 730.4725,22.8125 Q730.4725,24.9063 731.16,25.9844 Q731.8475,27.0469 733.1913,27.0469 Q733.8163,27.0469 734.41,26.7813 Q735.0038,26.5 735.6288,25.9219 L735.6288,28.6406 Z " fill="#FFFFFF"/><text fill="#D4D4D4" font-family="sans-serif" font-size="14" lengthAdjust="spacing" textLength="43.5654" x="746.66" y="27.8467">Player</text><line style="stroke:#555555;stroke-width:0.5;" x1="718.66" x2="792.2254" y1="39" y2="39"/><line style="stroke:#555555;stroke-width:0.5;" x1="718.66" x2="792.2254" y1="47" y2="47"/><g data-visibility-modifier="PUBLIC_METHOD"><ellipse cx="728.66" cy="60.6484" fill="#84BE84" rx="3" ry="3" style="stroke:#038048;stroke-width:1;"/></g><text fill="#D4D4D4" font-family="sans-serif" font-size="14" lengthAdjust="spacing" textLength="47.1748" x="737.66" y="63.9951">Input()</text></g><!--class Enemy--><g class="entity" data-qualified-name="Enemy" data-source-line="40" id="ent0006"><rect fill="#2B2B2B" height="64.2969" rx="2.5" ry="2.5" style="stroke:#555555;stroke-width:0.5;" width="112.7959" x="828.05" y="7"/><ellipse cx="857.6935" cy="23" fill="#2E5233" rx="11" ry="11" style="stroke:#E7E7E7;stroke-width:1;"/><path d="M860.6622,28.6406 Q860.0841,28.9375 859.4435,29.0781 Q858.8028,29.2344 858.0997,29.2344 Q855.5997,29.2344 854.2716,27.5938 Q852.9591,25.9375 852.9591,22.8125 Q852.9591,19.6875 854.2716,18.0313 Q855.5997,16.375 858.0997,16.375 Q858.8028,16.375 859.4435,16.5313 Q860.0997,16.6875 860.6622,16.9844 L860.6622,19.7031 Q860.0372,19.125 859.4435,18.8594 Q858.8497,18.5781 858.2247,18.5781 Q856.881,18.5781 856.1935,19.6563 Q855.506,20.7188 855.506,22.8125 Q855.506,24.9063 856.1935,25.9844 Q856.881,27.0469 858.2247,27.0469 Q858.8497,27.0469 859.4435,26.7813 Q860.0372,26.5 860.6622,25.9219 L860.6622,28.6406 Z " fill="#FFFFFF"/><text fill="#D4D4D4" font-family="sans-serif" font-size="14" lengthAdjust="spacing" textLength="48.2549" x="874.9476" y="27.8467">Enemy</text><line style="stroke:#555555;stroke-width:0.5;" x1="829.05" x2="939.8459" y1="39" y2="39"/><line style="stroke:#555555;stroke-width:0.5;" x1="829.05" x2="939.8459" y1="47" y2="47"/><g data-visibility-modifier="PUBLIC_METHOD"><ellipse cx="839.05" cy="60.6484" fill="#84BE84" rx="3" ry="3" style="stroke:#038048;stroke-width:1;"/></g><text fill="#D4D4D4" font-family="sans-serif" font-size="14" lengthAdjust="spacing" textLength="86.7959" x="848.05" y="63.9951">AIBehavior()</text></g><!--class UMovementStateMachineComponent--><g class="entity" data-qualified-name="UMovementStateMachineComponent" data-source-line="51" id="ent0009"><rect fill="#2B2B2B" height="96.8906" rx="2.5" ry="2.5" style="stroke:#555555;stroke-width:0.5;" width="414.0557" x="759.42" y="320.78"/><ellipse cx="831.5255" cy="336.78" fill="#2E5233" rx="11" ry="11" style="stroke:#E7E7E7;stroke-width:1;"/><path d="M834.4942,342.4206 Q833.9161,342.7175 833.2755,342.8581 Q832.6348,343.0144 831.9317,343.0144 Q829.4317,343.0144 828.1036,341.3738 Q826.7911,339.7175 826.7911,336.5925 Q826.7911,333.4675 828.1036,331.8113 Q829.4317,330.155 831.9317,330.155 Q832.6348,330.155 833.2755,330.3113 Q833.9317,330.4675 834.4942,330.7644 L834.4942,333.4831 Q833.8692,332.905 833.2755,332.6394 Q832.6817,332.3581 832.0567,332.3581 Q830.713,332.3581 830.0255,333.4363 Q829.338,334.4988 829.338,336.5925 Q829.338,338.6863 830.0255,339.7644 Q830.713,340.8269 832.0567,340.8269 Q832.6817,340.8269 833.2755,340.5613 Q833.8692,340.28 834.4942,339.7019 L834.4942,342.4206 Z " fill="#FFFFFF"/><text fill="#D4D4D4" font-family="sans-serif" font-size="14" lengthAdjust="spacing" textLength="261.3447" x="852.0255" y="341.6267">UMovementStateMachineComponent</text><line style="stroke:#555555;stroke-width:0.5;" x1="760.42" x2="1172.4757" y1="352.78" y2="352.78"/><g data-visibility-modifier="PRIVATE_FIELD"><rect fill="none" height="6" style="stroke:#C82930;stroke-width:1;" width="6" x="767.42" y="363.4284"/></g><text fill="#D4D4D4" font-family="sans-serif" font-size="14" lengthAdjust="spacing" textLength="309.0391" x="779.42" y="369.7751">CurrentState : UMovementMacroStateBase*</text><line style="stroke:#555555;stroke-width:0.5;" x1="760.42" x2="1172.4757" y1="377.0769" y2="377.0769"/><g data-visibility-modifier="PUBLIC_METHOD"><ellipse cx="770.42" cy="390.7253" fill="#84BE84" rx="3" ry="3" style="stroke:#038048;stroke-width:1;"/></g><text fill="#D4D4D4" font-family="sans-serif" font-size="14" lengthAdjust="spacing" textLength="350.1367" x="779.42" y="394.072">UpdateState(State: UMovementMacroStateBase*)</text><g data-visibility-modifier="PUBLIC_METHOD"><ellipse cx="770.42" cy="407.0222" fill="#84BE84" rx="3" ry="3" style="stroke:#038048;stroke-width:1;"/></g><text fill="#D4D4D4" font-family="sans-serif" font-size="14" lengthAdjust="spacing" textLength="388.0557" x="779.42" y="410.3689">TickComponent(DeltaTime: float, TickType: ELevelTick)</text></g><!--class UMovementMacroStateBase--><g class="entity" data-qualified-name="UMovementMacroStateBase" data-source-line="63" id="ent0011"><rect fill="#2B2B2B" height="96.8906" rx="2.5" ry="2.5" style="stroke:#555555;stroke-width:0.5;" width="230.2285" x="303.33" y="477.67"/><ellipse cx="318.33" cy="493.67" fill="#2A5D60" rx="11" ry="11" style="stroke:#E7E7E7;stroke-width:1;"/><path d="M318.4394,489.0137 L317.2831,494.0919 L319.6113,494.0919 L318.4394,489.0137 Z M316.955,486.7794 L319.9394,486.7794 L323.2988,499.17 L320.8456,499.17 L320.08,496.1075 L316.7988,496.1075 L316.0488,499.17 L313.6113,499.17 L316.955,486.7794 Z " fill="#FFFFFF"/><text fill="#D4D4D4" font-family="sans-serif" font-size="14" font-style="italic" lengthAdjust="spacing" textLength="198.2285" x="332.33" y="498.5167">UMovementMacroStateBase</text><line style="stroke:#555555;stroke-width:0.5;" x1="304.33" x2="532.5585" y1="509.67" y2="509.67"/><line style="stroke:#555555;stroke-width:0.5;" x1="304.33" x2="532.5585" y1="517.67" y2="517.67"/><g data-visibility-modifier="PUBLIC_METHOD"><ellipse cx="314.33" cy="531.3184" fill="#84BE84" rx="3" ry="3" style="stroke:#038048;stroke-width:1;"/></g><text fill="#D4D4D4" font-family="sans-serif" font-size="14" lengthAdjust="spacing" textLength="85.5586" x="323.33" y="534.6651">EnterState()</text><g data-visibility-modifier="PUBLIC_METHOD"><ellipse cx="314.33" cy="547.6153" fill="#84BE84" rx="3" ry="3" style="stroke:#038048;stroke-width:1;"/></g><text fill="#D4D4D4" font-family="sans-serif" font-size="14" lengthAdjust="spacing" textLength="74.4912" x="323.33" y="550.962">ExitState()</text><g data-visibility-modifier="PUBLIC_METHOD"><ellipse cx="314.33" cy="563.9122" fill="#84BE84" rx="3" ry="3" style="stroke:#038048;stroke-width:1;"/></g><text fill="#D4D4D4" font-family="sans-serif" font-size="14" lengthAdjust="spacing" textLength="188.8906" x="323.33" y="567.2589">TickState(DeltaTime: float)</text></g><!--class PlanetaryFlyMovement--><g class="entity" data-qualified-name="PlanetaryFlyMovement" data-source-line="75" id="ent0013"><rect fill="#2B2B2B" height="48" rx="2.5" ry="2.5" style="stroke:#555555;stroke-width:0.5;" width="192.8906" x="7" y="345.22"/><ellipse cx="22" cy="361.22" fill="#2E5233" rx="11" ry="11" style="stroke:#E7E7E7;stroke-width:1;"/><path d="M24.9688,366.8606 Q24.3906,367.1575 23.75,367.2981 Q23.1094,367.4544 22.4063,367.4544 Q19.9063,367.4544 18.5781,365.8137 Q17.2656,364.1575 17.2656,361.0325 Q17.2656,357.9075 18.5781,356.2512 Q19.9063,354.595 22.4063,354.595 Q23.1094,354.595 23.75,354.7512 Q24.4063,354.9075 24.9688,355.2044 L24.9688,357.9231 Q24.3438,357.345 23.75,357.0794 Q23.1563,356.7981 22.5313,356.7981 Q21.1875,356.7981 20.5,357.8762 Q19.8125,358.9387 19.8125,361.0325 Q19.8125,363.1262 20.5,364.2044 Q21.1875,365.2669 22.5313,365.2669 Q23.1563,365.2669 23.75,365.0012 Q24.3438,364.72 24.9688,364.1419 L24.9688,366.8606 Z " fill="#FFFFFF"/><text fill="#D4D4D4" font-family="sans-serif" font-size="14" lengthAdjust="spacing" textLength="160.8906" x="36" y="366.0667">PlanetaryFlyMovement</text><line style="stroke:#555555;stroke-width:0.5;" x1="8" x2="198.8906" y1="377.22" y2="377.22"/><line style="stroke:#555555;stroke-width:0.5;" x1="8" x2="198.8906" y1="385.22" y2="385.22"/></g><!--class PlanetaryMovement--><g class="entity" data-qualified-name="PlanetaryMovement" data-source-line="76" id="ent0014"><rect fill="#2B2B2B" height="48" rx="2.5" ry="2.5" style="stroke:#555555;stroke-width:0.5;" width="172.6631" x="235.11" y="345.22"/><ellipse cx="250.11" cy="361.22" fill="#2E5233" rx="11" ry="11" style="stroke:#E7E7E7;stroke-width:1;"/><path d="M253.0788,366.8606 Q252.5006,367.1575 251.86,367.2981 Q251.2194,367.4544 250.5163,367.4544 Q248.0163,367.4544 246.6881,365.8137 Q245.3756,364.1575 245.3756,361.0325 Q245.3756,357.9075 246.6881,356.2512 Q248.0163,354.595 250.5163,354.595 Q251.2194,354.595 251.86,354.7512 Q252.5163,354.9075 253.0788,355.2044 L253.0788,357.9231 Q252.4538,357.345 251.86,357.0794 Q251.2663,356.7981 250.6413,356.7981 Q249.2975,356.7981 248.61,357.8762 Q247.9225,358.9387 247.9225,361.0325 Q247.9225,363.1262 248.61,364.2044 Q249.2975,365.2669 250.6413,365.2669 Q251.2663,365.2669 251.86,365.0012 Q252.4538,364.72 253.0788,364.1419 L253.0788,366.8606 Z " fill="#FFFFFF"/><text fill="#D4D4D4" font-family="sans-serif" font-size="14" lengthAdjust="spacing" textLength="140.6631" x="264.11" y="366.0667">PlanetaryMovement</text><line style="stroke:#555555;stroke-width:0.5;" x1="236.11" x2="406.7731" y1="377.22" y2="377.22"/><line style="stroke:#555555;stroke-width:0.5;" x1="236.11" x2="406.7731" y1="385.22" y2="385.22"/></g><!--class PlaneMovement--><g class="entity" data-qualified-name="PlaneMovement" data-source-line="77" id="ent0015"><rect fill="#2B2B2B" height="48" rx="2.5" ry="2.5" style="stroke:#555555;stroke-width:0.5;" width="144.5537" x="443.17" y="345.22"/><ellipse cx="458.17" cy="361.22" fill="#2E5233" rx="11" ry="11" style="stroke:#E7E7E7;stroke-width:1;"/><path d="M461.1388,366.8606 Q460.5606,367.1575 459.92,367.2981 Q459.2794,367.4544 458.5763,367.4544 Q456.0763,367.4544 454.7481,365.8137 Q453.4356,364.1575 453.4356,361.0325 Q453.4356,357.9075 454.7481,356.2512 Q456.0763,354.595 458.5763,354.595 Q459.2794,354.595 459.92,354.7512 Q460.5763,354.9075 461.1388,355.2044 L461.1388,357.9231 Q460.5138,357.345 459.92,357.0794 Q459.3263,356.7981 458.7013,356.7981 Q457.3575,356.7981 456.67,357.8762 Q455.9825,358.9387 455.9825,361.0325 Q455.9825,363.1262 456.67,364.2044 Q457.3575,365.2669 458.7013,365.2669 Q459.3263,365.2669 459.92,365.0012 Q460.5138,364.72 461.1388,364.1419 L461.1388,366.8606 Z " fill="#FFFFFF"/><text fill="#D4D4D4" font-family="sans-serif" font-size="14" lengthAdjust="spacing" textLength="112.5537" x="472.17" y="366.0667">PlaneMovement</text><line style="stroke:#555555;stroke-width:0.5;" x1="444.17" x2="586.7237" y1="377.22" y2="377.22"/><line style="stroke:#555555;stroke-width:0.5;" x1="444.17" x2="586.7237" y1="385.22" y2="385.22"/></g><!--link Entity to Character--><g class="link" data-entity-1="ent0003" data-entity-2="ent0002" data-link-type="extension" data-source-line="31" id="lnk4"><path codeLine="31" d="M764.66,261.27 C745.41,283.85 736.0231,294.8568 718.9931,314.8168" fill="none" id="Entity-to-Character" style="stroke:#888888;stroke-width:1;"/><polygon fill="none" points="707.31,328.51,723.5575,318.7112,714.4287,310.9224,707.31,328.51" style="stroke:#888888;stroke-width:1;"/></g><!--link Player to Entity--><g class="link" data-entity-1="ent0005" data-entity-2="ent0003" data-link-type="extension" data-source-line="45" id="lnk7"><path codeLine="45" d="M768.4,71.49 C775.48,88.64 777.6586,93.8932 786.1586,114.4732" fill="none" id="Player-to-Entity" style="stroke:#888888;stroke-width:1;"/><polygon fill="none" points="793.03,131.11,791.7042,112.1827,780.613,116.7636,793.03,131.11" style="stroke:#888888;stroke-width:1;"/></g><!--link Enemy to Entity--><g class="link" data-entity-1="ent0006" data-entity-2="ent0003" data-link-type="extension" data-source-line="46" id="lnk8"><path codeLine="46" d="M871.29,71.49 C864.09,88.64 861.8777,93.9333 853.2377,114.5133" fill="none" id="Enemy-to-Entity" style="stroke:#888888;stroke-width:1;"/><polygon fill="none" points="846.27,131.11,858.77,116.8359,847.7055,112.1907,846.27,131.11" style="stroke:#888888;stroke-width:1;"/></g><!--reverse link Entity to UMovementStateMachineComponent--><g class="link" data-entity-1="ent0003" data-entity-2="ent0009" data-link-type="composition" data-source-line="58" id="lnk10"><path codeLine="58" d="M882.4164,270.3752 C899.2764,290.0152 909.71,302.15 925.45,320.49" fill="none" id="Entity-backto-UMovementStateMachineComponent" style="stroke:#888888;stroke-width:1;"/><polygon fill="#888888" points="874.6,261.27,875.4731,268.428,882.4164,270.3752,881.5432,263.2171,874.6,261.27" style="stroke:#888888;stroke-width:1;"/></g><!--link UMovementStateMachineComponent to UMovementMacroStateBase--><g class="link" data-entity-1="ent0009" data-entity-2="ent0011" data-link-type="dependency" data-source-line="70" id="lnk12"><path codeLine="70" d="M797.18,418.07 C711.66,442.24 615.8937,469.3078 539.4837,490.9078" fill="none" id="UMovementStateMachineComponent-to-UMovementMacroStateBase" style="stroke:#888888;stroke-width:1;"/><polygon fill="#888888" points="533.71,492.54,543.4587,493.9409,538.5215,491.1799,541.2825,486.2426,533.71,492.54" style="stroke:#888888;stroke-width:1;"/></g><!--link PlanetaryFlyMovement to UMovementMacroStateBase--><g class="link" data-entity-1="ent0013" data-entity-2="ent0011" data-link-type="extension" data-source-line="80" id="lnk16"><path codeLine="80" d="M150.95,393.58 C195.8,415.64 248.2869,441.4478 304.8069,469.2378" fill="none" id="PlanetaryFlyMovement-to-UMovementMacroStateBase" style="stroke:#888888;stroke-width:1;"/><polygon fill="none" points="320.96,477.18,307.4543,463.8534,302.1595,474.6221,320.96,477.18" style="stroke:#888888;stroke-width:1;"/></g><!--link PlanetaryMovement to UMovementMacroStateBase--><g class="link" data-entity-1="ent0014" data-entity-2="ent0011" data-link-type="extension" data-source-line="81" id="lnk17"><path codeLine="81" d="M335.97,393.41 C349.81,415.52 361.5372,434.234 379.0072,462.134" fill="none" id="PlanetaryMovement-to-UMovementMacroStateBase" style="stroke:#888888;stroke-width:1;"/><polygon fill="none" points="388.56,477.39,384.0926,458.9498,373.9219,465.3183,388.56,477.39" style="stroke:#888888;stroke-width:1;"/></g><!--link PlaneMovement to UMovementMacroStateBase--><g class="link" data-entity-1="ent0015" data-entity-2="ent0011" data-link-type="extension" data-source-line="82" id="lnk18"><path codeLine="82" d="M500.92,393.41 C487.08,415.52 475.3528,434.234 457.8828,462.134" fill="none" id="PlaneMovement-to-UMovementMacroStateBase" style="stroke:#888888;stroke-width:1;"/><polygon fill="none" points="448.33,477.39,462.9681,465.3183,452.7974,458.9498,448.33,477.39" style="stroke:#888888;stroke-width:1;"/></g><?plantuml-src bLHTRzem57tFhx2qXmQwI5lLIXNIAeK0WccqrGXxTv9BOv7Oo3PiQEj_hxy22OKcSoIKd7ljUy-vnuWreHlCSOdI0Wk1_df8hI5Ero-SRMaMiO9nzEacqO-9XPoptmw-DyjkOJm3xl0ximm-OLGwz3OA9tTVx25ISf9i9TJ2sQr-J7WECcTPBNP_atnThRnNJnpwJGuzfYP7Sao52W6LddVrxQFbNQ4bvO0BHLG0YZHp46sRh41Hhggd4hYJwdhETk3txFltRRbHxwyT6eWO1pIcaiYzRQ1RURV3rWwcYeFC8rPk65MyqG0jJw2-JTHDbkfp8R64EKvpGa5ddyDFzbx7U0qZNE8Ny76fz9O3j2eObhqQ_unmI2LXT80clzGRuowwt6Jwv7ePN-ZVMd5LbpCJqkFeM_qgfhF7wVZdB5wW5MVbKNtFXOFWtqCDRTVzkS1xDJnCCrK1oZrQR9FqVmpW3d3Jdz7DLjgHLmFIXxfeE1j2ZdU4SUUAz-KTFqlFal9Sak7c89jSHzgfLlgYeq7yE0Sqv9ZGNZUs7pkayc6qvRpAGPSdMxU4jSAYpGhMWIHT7shw8oWaZaa9peUVaOx7-uq2nZzW1uN-Rhfe6Yw24Dd-AllxvaX1j6rxbP_wGT32kOFmOIAaDkHn0kQajesusdOYVLEKobkgOU1MHIVJ-0-H3K3hO85JpPmwJK6UdsQFwgB5JoYryqJcfY9_P6utP2WKWgK4MyLQh1443vSeTFfxf2a7tLn3mkvtb8B4V3yfzjK1fw5p-06hTs144CsBQWPXXtgkbhsebzY_Qw53UgVKDm00?></g></svg>